<?xml version="1.0" encoding="UTF-8" standalone="no"?>
<!-- Created with Inkscape (http://www.inkscape.org/) -->

<svg
   xmlns:dc="http://purl.org/dc/elements/1.1/"
   xmlns:cc="http://creativecommons.org/ns#"
   xmlns:rdf="http://www.w3.org/1999/02/22-rdf-syntax-ns#"
   xmlns:svg="http://www.w3.org/2000/svg"
   xmlns="http://www.w3.org/2000/svg"
   xmlns:sodipodi="http://sodipodi.sourceforge.net/DTD/sodipodi-0.dtd"
   xmlns:inkscape="http://www.inkscape.org/namespaces/inkscape"
   width="512"
   height="512"
   id="svg2985"
   version="1.1"
   inkscape:version="0.48.5 r10040"
   sodipodi:docname="Copyreich.svg">
  <defs
     id="defs2987" />
  <sodipodi:namedview
     id="base"
     pagecolor="#ffffff"
     bordercolor="#666666"
     borderopacity="1.0"
     inkscape:pageopacity="1"
     inkscape:pageshadow="2"
     inkscape:zoom="0.69191503"
     inkscape:cx="256"
     inkscape:cy="256"
     inkscape:document-units="px"
     inkscape:current-layer="layer2"
     showgrid="false"
     inkscape:window-width="1024"
     inkscape:window-height="721"
     inkscape:window-x="-4"
     inkscape:window-y="-4"
     inkscape:window-maximized="1"
     width="512px" />
  <metadata
     id="metadata2990">
    <rdf:RDF>
      <cc:Work
         rdf:about="">
        <dc:format>image/svg+xml</dc:format>
        <dc:type
           rdf:resource="http://purl.org/dc/dcmitype/StillImage" />
        <dc:title />
      </cc:Work>
    </rdf:RDF>
  </metadata>
  <g
     inkscape:groupmode="layer"
     id="layer2"
     inkscape:label="Fond">
    <rect
       style="fill:#bf0103;fill-opacity:1;fill-rule:nonzero;stroke:none"
       id="rect3873"
       width="515.95929"
       height="518.84985"
       x="9.5326493e-007"
       y="-2.5140395" />
  </g>
  <g
     inkscape:label="Copyreich"
     inkscape:groupmode="layer"
     id="layer1"
     transform="translate(0,-540.36216)"
     style="display:inline">
    <path
       sodipodi:type="arc"
       style="fill:#000000;fill-opacity:1;fill-rule:nonzero;stroke:none"
       id="path3012"
       sodipodi:cx="311.69659"
       sodipodi:cy="314.76248"
       sodipodi:rx="160.44711"
       sodipodi:ry="160.44711"
       d="m 472.14371,314.76248 c 0,88.6125 -71.83462,160.44711 -160.44712,160.44711 -88.61249,0 -160.44711,-71.83461 -160.44711,-160.44711 0,-88.61249 71.83462,-160.44711 160.44711,-160.44711 88.6125,0 160.44712,71.83462 160.44712,160.44711 z"
       transform="matrix(1.1974522,0,0,1.1974522,-111.62103,411.78446)" />
    <path
       sodipodi:type="arc"
       style="fill:#ffffff;fill-opacity:1;fill-rule:nonzero;stroke:none"
       id="path3012-1"
       sodipodi:cx="311.69659"
       sodipodi:cy="314.76248"
       sodipodi:rx="160.44711"
       sodipodi:ry="160.44711"
       d="m 472.14371,314.76248 c 0,88.6125 -71.83462,160.44711 -160.44712,160.44711 -88.61249,0 -160.44711,-71.83461 -160.44711,-160.44711 0,-88.61249 71.83462,-160.44711 160.44711,-160.44711 88.6125,0 160.44712,71.83462 160.44712,160.44711 z"
       transform="matrix(0.98019739,0,0,0.98019739,-44.595074,479.8378)" />
    <path
       sodipodi:type="arc"
       style="fill:#000000;fill-opacity:1;fill-rule:nonzero;stroke:none"
       id="path3012-1-7"
       sodipodi:cx="311.69659"
       sodipodi:cy="314.76248"
       sodipodi:rx="160.44711"
       sodipodi:ry="160.44711"
       d="m 472.14371,314.76248 c 0,88.6125 -71.83462,160.44711 -160.44712,160.44711 -88.61249,0 -160.44711,-71.83461 -160.44711,-160.44711 0,-88.61249 71.83462,-160.44711 160.44711,-160.44711 77.39758,0 143.7633,55.25312 157.79019,131.36903"
       transform="matrix(0.72392933,0,0,0.72618126,36.691756,561.2015)"
       sodipodi:start="0"
       sodipodi:end="6.1009467"
       sodipodi:open="true" />
    <path
       style="fill:#ffffff;fill-opacity:1;fill-rule:nonzero;stroke:none"
       d="m 265.0586,724.11216 c -35.88205,0 -64.96485,29.6013 -64.96485,66.125 0,36.5237 29.0828,66.125 64.96485,66.125 27.43111,0 50.87829,-17.31217 60.40757,-41.78125 l 0.44001,0.0312 51.95302,0 c 0,0 1.3839,-10.9084 1.10004,-26.71875 -0.31716,-17.6649 -2.92295,-27.84375 -2.92295,-27.84375 l -52.89591,0.56255 c -10.78608,-21.90698 -32.9996,-36.5 -58.08178,-36.5 z"
       id="path3012-1-7-4"
       inkscape:connector-curvature="0" />
    <path
       style="fill:#000000;stroke:none"
       d="m 260.09375,198 -28.875,29.90625 19.3125,20.09375 -8.0625,7.75 -18.15625,-18.40625 -12.25,11.78125 30.65625,30.125 19.1875,-19.4375 7.875,8.1875 -18.375,18.15625 11.75,12.25 30.15625,-30.65625 -19.875,-19.625 9.125,-9.25 18.90625,19.65625 11,-12.5 -29.90625,-28.875 -20.5,19.75 -9.125,-9 L 272.59375,209 l -12.5,-11 z"
       transform="translate(0,540.36216)"
       id="path3841"
       inkscape:connector-curvature="0" />
  </g>
</svg>
